Coordinates
version=1
nRows=16
nColumns=40
inDegrees=yes

Units are S.I. units (second, meters, Newtons, ...)
If the header above contains a line with 'inDegrees', this indicates whether rotational values are in degrees (yes) or radians (no).

endheader
time	pelvis_tilt	pelvis_list	pelvis_rotation	pelvis_tx	pelvis_ty	pelvis_tz	hip_flexion_r	hip_adduction_r	hip_rotation_r	knee_angle_r	knee_angle_r_beta	ankle_angle_r	subtalar_angle_r	mtp_angle_r	hip_flexion_l	hip_adduction_l	hip_rotation_l	knee_angle_l	knee_angle_l_beta	ankle_angle_l	subtalar_angle_l	mtp_angle_l	lumbar_extension	lumbar_bending	lumbar_rotation	arm_flex_r	arm_add_r	arm_rot_r	elbow_flex_r	pro_sup_r	wrist_flex_r	wrist_dev_r	arm_flex_l	arm_add_l	arm_rot_l	elbow_flex_l	pro_sup_l	wrist_flex_l	wrist_dev_l
      2.18500000	      3.78664320	     -2.97345184	     -0.89198257	     -0.30712945	      1.01021372	     -0.99538922	     25.23403836	     -2.33382742	      5.95852783	     15.35808574	      0.26804916	      0.38929923	      0.00000000	      0.00000000	     18.32508167	     -2.49828901	     -5.22376563	     43.24055903	      0.75469013	      8.58455385	      0.00000000	      0.00000000	    -11.48153278	     -1.91296127	     -3.33602970	     89.71761855	     -4.55163645	     61.16701946	     44.27246829	     81.82035237	      0.00000000	      0.00000000	     89.86423681	    -16.50549178	     62.15264475	     47.89226791	     87.61106380	      0.00000000	      0.00000000
      2.19000000	      3.67330615	     -3.01760308	     -0.99413005	     -0.30770690	      1.00910389	     -0.99523084	     25.56018517	     -2.25855918	      5.93718439	     15.44948514	      0.26964438	      0.29793356	      0.00000000	      0.00000000	     18.62902892	     -2.56569257	     -5.21786596	     43.57237353	      0.76048138	      8.75469658	      0.00000000	      0.00000000	    -11.42666992	     -1.90822225	     -3.25370570	     89.72194510	     -4.50473667	     60.91131235	     44.18726451	     83.76658205	      0.00000000	      0.00000000	     89.86592356	    -16.51715437	     62.18059256	     47.89485489	     87.41649019	      0.00000000	      0.00000000
      2.19500000	      3.62009764	     -3.03864516	     -1.03997203	     -0.30831141	      1.00799328	     -0.99519225	     25.83091408	     -2.22428864	      5.91758101	     15.61639302	      0.27255748	      0.48231102	      0.00000000	      0.00000000	     18.90156133	     -2.60126150	     -5.17676921	     43.93744749	      0.76685312	      8.88487741	      0.00000000	      0.00000000	    -11.44947221	     -1.89682910	     -3.23980283	     89.72813874	     -4.44741005	     60.80968143	     44.15877570	     83.44573296	      0.00000000	      0.00000000	     89.86775671	    -16.53718684	     61.94377722	     47.87088213	     87.47670179	      0.00000000	      0.00000000
      2.20000000	      3.54122540	     -3.12143729	     -1.05500253	     -0.30890403	      1.00693710	     -0.99511660	     26.08975059	     -2.12000077	      5.86866600	     15.69220128	      0.27388058	      0.49215855	      0.00000000	      0.00000000	     19.19698312	     -2.70109756	     -5.11885282	     44.29611912	      0.77311312	      9.03174854	      0.00000000	      0.00000000	    -11.44251064	     -1.83669961	     -3.24120522	     89.73069453	     -4.38027462	     60.61076211	     44.07207680	     83.69969140	      0.00000000	      0.00000000	     89.86898276	    -16.54458702	     61.83033988	     47.89769374	     87.42854013	      0.00000000	      0.00000000
      2.20500000	      3.57036689	     -3.18654953	     -1.06282384	     -0.30931606	      1.00597694	     -0.99520670	     26.25062200	     -2.07137165	      5.69861208	     15.85245025	      0.27667745	      0.62847177	      0.00000000	      0.00000000	     19.35939219	     -2.76036760	     -5.04522093	     44.65068108	      0.77930140	      9.24227173	      0.00000000	      0.00000000	    -11.54716986	     -1.78471836	     -3.24365264	     89.74153985	     -4.41964581	     60.73090329	     44.23630455	     81.68944100	      0.00000000	      0.00000000	     89.87011712	    -16.51087380	     61.68636163	     47.84114820	     87.57598545	      0.00000000	      0.00000000
      2.21000000	      3.50014414	     -3.18680726	     -1.15845938	     -0.30990843	      1.00489311	     -0.99505674	     26.48112407	     -2.02201239	      5.90564423	     15.86629158	      0.27691903	      0.48074605	      0.00000000	      0.00000000	     19.62825676	     -2.80192627	     -5.10676164	     45.01439239	      0.78564936	      9.42490492	      0.00000000	      0.00000000	    -11.55004805	     -1.81597732	     -3.18867685	     89.74141726	     -4.30993107	     60.33628116	     44.09631606	     83.61886573	      0.00000000	      0.00000000	     89.87172502	    -16.58918576	     61.53219835	     47.97431162	     87.44015153	      0.00000000	      0.00000000
      2.21500000	      3.46368462	     -3.14012248	     -1.15868515	     -0.31062913	      1.00387314	     -0.99507869	     26.74717556	     -2.07260952	      5.85869075	     16.02488808	      0.27968706	      0.58122676	      0.00000000	      0.00000000	     19.87911692	     -2.74178758	     -5.03293896	     45.31767888	      0.79094271	      9.47505544	      0.00000000	      0.00000000	    -11.58938350	     -1.89094255	     -3.20390945	     89.74755532	     -4.28822749	     60.20257131	     44.08215587	     83.04846478	      0.00000000	      0.00000000	     89.87324728	    -16.48447735	     61.38786036	     47.77828351	     87.48056426	      0.00000000	      0.00000000
      2.22000000	      3.40838104	     -3.17739895	     -1.25566160	     -0.31104658	      1.00276664	     -0.99496587	     27.01894893	     -1.99248015	      5.84552112	     16.18845804	      0.28254189	      0.60008843	      0.00000000	      0.00000000	     20.10211413	     -2.81918325	     -5.09612494	     45.64260098	      0.79661367	      9.69269436	      0.00000000	      0.00000000	    -11.61055066	     -1.88040443	     -3.16907838	     89.75178832	     -4.22229929	     60.12025400	     44.08704976	     83.33400299	      0.00000000	      0.00000000	     89.87389825	    -16.60118630	     61.25705120	     47.94838210	     87.44953084	      0.00000000	      0.00000000
      2.22500000	      3.40944554	     -3.22261614	     -1.29997830	     -0.31151636	      1.00167241	     -0.99496589	     27.21212544	     -1.94150011	      5.75519598	     16.31860016	      0.28481330	      0.71441358	      0.00000000	      0.00000000	     20.29192328	     -2.89563007	     -5.10808761	     46.00953410	      0.80301786	      9.88604449	      0.00000000	      0.00000000	    -11.67958960	     -1.85251093	     -3.16242851	     89.75660023	     -4.15117082	     59.88306957	     44.04122941	     83.67576450	      0.00000000	      0.00000000	     89.87522644	    -16.63572479	     61.12848583	     47.98581052	     87.43530884	      0.00000000	      0.00000000
      2.23000000	      3.31858754	     -3.16667926	     -1.36359001	     -0.31231664	      1.00060025	     -0.99487899	     27.55486508	     -1.97013281	      5.77034088	     16.48657116	      0.28774495	      0.66687811	      0.00000000	      0.00000000	     20.60261235	     -2.83896022	     -5.03388866	     46.34199354	      0.80882037	      9.92652991	      0.00000000	      0.00000000	    -11.66669379	     -1.94937208	     -3.11355778	     89.75998802	     -4.16313158	     59.88071303	     44.06836321	     83.32891542	      0.00000000	      0.00000000	     89.87690325	    -16.58593573	     60.94904260	     47.93711049	     87.45284631	      0.00000000	      0.00000000
      2.23500000	      3.31750006	     -3.17243790	     -1.36830399	     -0.31282444	      0.99953448	     -0.99490632	     27.76150273	     -1.97442258	      5.63434145	     16.61577222	      0.28999993	      0.66743232	      0.00000000	      0.00000000	     20.77738428	     -2.86824010	     -5.06232641	     46.64007823	      0.81402293	     10.07371538	      0.00000000	      0.00000000	    -11.74059478	     -1.95753234	     -3.13478931	     89.76494075	     -4.09397805	     59.79330836	     44.02539985	     81.51279566	      0.00000000	      0.00000000	     89.87774036	    -16.58223674	     60.77892641	     47.96259980	     87.54433248	      0.00000000	      0.00000000
      2.24000000	      3.36885848	     -3.27479040	     -1.44934344	     -0.31318454	      0.99857375	     -0.99486808	     27.87366816	     -1.82770232	      5.63702502	     16.71794126	      0.29178312	      0.84712299	      0.00000000	      0.00000000	     20.88270404	     -3.02503811	     -5.15599536	     46.96482979	      0.81969091	     10.30732371	      0.00000000	      0.00000000	    -11.87141985	     -1.87382698	     -3.07988685	     89.76825647	     -4.07941647	     59.53448556	     44.03181785	     83.34682428	      0.00000000	      0.00000000	     89.87856933	    -16.61986156	     60.66220459	     47.97428347	     87.45880153	      0.00000000	      0.00000000
      2.24500000	      3.26030909	     -3.13180339	     -1.53020656	     -0.31387873	      0.99733463	     -0.99487858	     28.30785388	     -1.96062223	      5.48365229	     17.01183916	      0.29691261	      1.06518171	      0.00000000	      0.00000000	     21.20922186	     -2.89078021	     -5.16533964	     47.30583745	      0.82564262	     10.41498883	      0.00000000	      0.00000000	    -11.81403303	     -2.08509751	     -2.96179954	     89.76597648	     -4.04996225	     59.21017578	     43.82808991	     80.51101129	      0.00000000	      0.00000000	     89.88358324	    -16.38314164	     60.77117303	     47.73127445	     85.02639438	      0.00000000	      0.00000000
      2.25000000	      3.23237310	     -3.30048426	     -1.55802127	     -0.31444568	      0.99627647	     -0.99470497	     28.47566992	     -1.76073659	      5.49739252	     17.04120809	      0.29742519	      0.92687642	      0.00000000	      0.00000000	     21.43818754	     -3.13665543	     -5.22200563	     47.66514051	      0.83191364	     10.54976376	      0.00000000	      0.00000000	    -11.87450092	     -1.90740448	     -2.99305271	     89.77541917	     -4.01439373	     59.16583588	     43.94058345	     83.68146953	      0.00000000	      0.00000000	     89.88144206	    -16.53702463	     60.32803123	     47.89214708	     87.40320861	      0.00000000	      0.00000000
      2.25500000	      3.17174306	     -3.30273014	     -1.59319666	     -0.31496062	      0.99518747	     -0.99471867	     28.76391778	     -1.76156811	      5.37084494	     17.18728795	      0.29997476	      0.97809336	      0.00000000	      0.00000000	     21.67783952	     -3.18181073	     -5.27389276	     47.97280558	      0.83728341	     10.75566409	      0.00000000	      0.00000000	    -11.89772231	     -1.92527355	     -3.02360337	     89.77815587	     -3.93463359	     59.00290949	     43.92185294	     83.60015769	      0.00000000	      0.00000000	     89.88216450	    -16.61069835	     60.18091048	     47.99483791	     87.41444009	      0.00000000	      0.00000000
      2.26000000	      3.16881593	     -3.33475573	     -1.62664810	     -0.31547982	      0.99417052	     -0.99469351	     29.03964733	     -1.72789315	      5.10497368	     17.46171123	      0.30476435	      1.12809567	      0.00000000	      0.00000000	     21.84595095	     -3.22211252	     -5.22498362	     48.25705326	      0.84224447	     10.80691602	      0.00000000	      0.00000000	    -11.97545272	     -1.91393430	     -3.01013655	     89.78037458	     -3.89734509	     58.81079486	     43.88311120	     83.60718140	      0.00000000	      0.00000000	     89.88313378	    -16.60546030	     59.99410763	     47.99442742	     87.43033596	      0.00000000	      0.00000000
